<svg width="900" height="201" viewBox="0 0 900 201" fill="none" xmlns="http://www.w3.org/2000/svg">
<path d="M693.106 29.8714L723.269 0L827.104 104.848L796.942 134.72L693.106 29.8714Z" fill="#F2C818"/>
<path d="M758.949 96.1514L789.111 66.28L892.947 171.128L862.785 201L758.949 96.1514Z" fill="#0A1D3A"/>
<path d="M733.481 197.934L704.464 168.917L798.019 75.3611L827.037 104.378L733.481 197.934Z" fill="#EB3D45"/>
<path d="M806.128 125.287L777.111 96.2695L870.666 2.71412L899.684 31.7313L806.128 125.287Z" fill="#8B4DAC"/>
<path d="M-1.91743e-06 50.3886L0 2.71411L147.564 2.71412L147.564 50.3886L-1.91743e-06 50.3886Z" fill="#4698CB"/>
<path d="M-4.71475e-07 118.495L0 79.9014L147.564 79.9014L147.564 118.495L-4.71475e-07 118.495Z" fill="#F2C818"/>
<path d="M108.97 82.1716L147.564 82.1716L147.564 186.601L108.97 186.601L108.97 82.1716Z" fill="#F2C818"/>
<path d="M-9.12869e-05 2.71411L38.5935 2.71411L38.5935 118.495L-0.000118103 118.495L-9.12869e-05 2.71411Z" fill="#8B4DAC"/>
<path d="M-5.81676e-07 195.682L0 150.278L147.564 150.278L147.564 195.682L-5.81676e-07 195.682Z" fill="#EB3D45"/>
<path d="M547.418 163.314L498.996 75.1703H420.813L371.043 163.314H547.418Z" fill="#4698CB"/>
<path d="M543.825 156.768H374.74L351.883 197.254H566.061L543.825 156.768Z" fill="#0A1D3A"/>
<path d="M502.044 80.7129L460.441 4.98462L417.686 80.7129H502.044Z" fill="#EB3D45"/>
<path d="M676.82 163.314L628.398 75.1703H550.215L500.446 163.314H676.82Z" fill="#8B4DAC"/>
<path d="M673.227 156.768H504.142L481.285 197.254H695.463L673.227 156.768Z" fill="#0A1D3A"/>
<path d="M631.446 80.7129L589.843 4.98462L547.088 80.7129H631.446Z" fill="#F2C818"/>
<path d="M365.504 100.333C365.238 46.3708 321.638 2.71408 267.89 2.71408C214.126 2.71408 170.536 46.3708 170.266 100.333H365.504Z" fill="#8B4DAC"/>
<path d="M170.284 100.333L170.266 100.996C170.266 154.545 213.976 197.952 267.893 197.952C321.8 197.952 365.504 154.545 365.504 100.996L365.49 100.333H170.284Z" fill="#EB3D45"/>
<path d="M365.49 100.333H267.885L328.331 177.521C350.972 159.696 365.504 132.044 365.504 100.999L365.49 100.333Z" fill="#4698CB"/>
<path d="M267.885 100.333H365.504C365.16 65.9763 347.311 35.8499 320.53 18.6056L267.885 100.333Z" fill="#F2C818"/>
</svg>
